<svg width="1024" height="1024" viewBox="0 0 1024 1024" xmlns="http://www.w3.org/2000/svg">
  <defs>
    <linearGradient id="bg" x1="0" y1="0" x2="1" y2="1">
      <stop offset="0%" stop-color="#38bdf8"/>
      <stop offset="100%" stop-color="#34d399"/>
    </linearGradient>
    <filter id="shadow" x="-20%" y="-20%" width="140%" height="140%">
      <feDropShadow dx="0" dy="16" stdDeviation="24" flood-color="#0f172a" flood-opacity="0.2"/>
    </filter>
  </defs>
  <rect x="80" y="80" width="864" height="864" rx="200" fill="url(#bg)" filter="url(#shadow)"/>
  <!-- House roof -->
  <path d="M256 476 L512 288 L768 476" fill="none" stroke="#ffffff" stroke-width="48" stroke-linecap="round" stroke-linejoin="round"/>
  <!-- House body -->
  <rect x="320" y="476" width="384" height="300" rx="28" fill="none" stroke="#ffffff" stroke-width="44"/>
  <!-- Calculator inside house -->
  <rect x="372" y="520" width="280" height="220" rx="24" fill="#ffffff" opacity="0.95"/>
  <rect x="404" y="552" width="216" height="56" rx="12" fill="#06b6d4" opacity="0.9"/>
  <!-- Keys -->
  <g fill="#0ea5e9">
    <rect x="404" y="626" width="48" height="48" rx="10"/>
    <rect x="468" y="626" width="48" height="48" rx="10"/>
    <rect x="532" y="626" width="48" height="48" rx="10"/>
    <rect x="596" y="626" width="24" height="104" rx="10"/>
    <rect x="404" y="690" width="48" height="48" rx="10"/>
    <rect x="468" y="690" width="48" height="48" rx="10"/>
    <rect x="532" y="690" width="48" height="48" rx="10"/>
  </g>
</svg>
